<?xml version="1.0" standalone="no"?>
<!DOCTYPE svg PUBLIC "-//W3C//DTD SVG 20010904//EN"
 "http://www.w3.org/TR/2001/REC-SVG-20010904/DTD/svg10.dtd">
<svg version="1.0" xmlns="http://www.w3.org/2000/svg"
 width="569.000000pt" height="569.000000pt" viewBox="0 0 569.000000 569.000000"
 preserveAspectRatio="xMidYMid meet">
<metadata>
Created by potrace 1.11, written by Peter Selinger 2001-2013
</metadata>
<g transform="translate(0.000000,569.000000) scale(0.100000,-0.100000)"
fill="#000000" stroke="none">
<path d="M2620 5683 c-173 -16 -348 -47 -500 -88 -52 -14 -102 -27 -110 -30
-135 -34 -403 -151 -579 -252 -675 -388 -1171 -1049 -1351 -1798 -28 -117 -32
-138 -51 -260 -19 -125 -24 -206 -24 -400 0 -260 12 -390 56 -595 11 -52 22
-104 25 -115 9 -45 78 -256 111 -340 87 -221 240 -496 370 -665 368 -479 852
-824 1398 -1000 140 -45 213 -63 375 -95 148 -29 270 -39 495 -39 269 -1 405
12 620 60 39 9 77 17 86 19 28 6 162 46 224 67 524 179 1017 536 1349 978 31
41 60 80 64 85 38 48 160 258 218 375 90 181 190 452 210 568 3 15 11 52 19
82 13 52 37 200 50 300 3 25 8 109 11 186 7 160 -1 185 -59 203 -20 5 -526 8
-1320 8 l-1287 -2 -1 25 c0 14 -1 622 -2 1352 l-2 1327 -23 23 c-22 22 -30 23
-180 23 -86 1 -173 -1 -192 -2z m3 -364 c14 -6 30 -22 37 -34 10 -19 13 -267
12 -1137 0 -612 -1 -1121 -1 -1131 -1 -11 -14 -32 -31 -47 l-30 -28 -216 0
c-280 -1 -284 1 -299 143 -28 274 -118 555 -255 792 -67 117 -66 114 -138 213
-119 163 -271 316 -437 440 -152 114 -144 145 87 317 320 240 689 397 1098
468 97 16 143 18 173 4z m-1621 -1025 c244 -164 494 -456 599 -701 11 -26 27
-61 34 -78 18 -39 66 -183 71 -215 3 -14 9 -38 14 -55 14 -48 27 -133 31 -203
2 -35 -3 -48 -25 -70 l-26 -27 -633 -2 c-402 -1 -641 2 -658 8 -42 16 -60 58
-54 126 3 32 8 69 10 83 3 14 7 46 10 72 3 26 15 86 26 135 11 48 22 98 24
109 15 68 84 265 128 363 78 175 183 360 270 472 39 51 85 47 179 -17z m677
-1709 c61 -31 59 -81 -10 -291 -27 -84 -149 -341 -167 -354 -5 -3 -19 -23 -32
-45 -95 -156 -317 -376 -495 -490 -71 -45 -107 -53 -140 -31 -22 15 -90 109
-131 181 -77 135 -102 184 -139 266 -86 189 -161 439 -186 620 -12 79 -11 89
5 113 9 15 27 31 39 36 12 5 293 9 625 9 512 1 607 -1 631 -14z m961 -14 c22
-22 30 -39 31 -68 0 -21 1 -496 1 -1056 1 -810 -2 -1023 -12 -1042 -22 -41
-59 -49 -163 -35 -409 55 -829 230 -1162 483 -231 176 -241 208 -98 313 211
155 383 333 523 543 76 114 176 307 219 426 36 98 101 343 101 380 0 13 13 37
28 53 l29 31 237 1 237 1 29 -30z m958 1 c20 -19 32 -42 37 -72 12 -75 55
-239 85 -324 107 -306 286 -585 516 -808 68 -66 100 -94 184 -161 8 -7 37 -28
63 -47 69 -49 87 -95 59 -147 -30 -53 -355 -287 -523 -376 -198 -105 -453
-197 -671 -241 -234 -47 -282 -46 -313 6 -17 30 -18 78 -18 1085 0 1018 1
1054 19 1074 11 12 28 25 39 30 11 4 126 8 256 8 l237 1 30 -28z m1699 -6 c22
-26 24 -35 19 -90 -5 -60 -12 -106 -21 -136 -2 -8 -7 -29 -10 -47 -8 -51 -80
-282 -115 -368 -62 -157 -198 -409 -276 -511 -29 -39 -80 -52 -123 -30 -58 31
-228 165 -305 242 -144 144 -246 284 -335 462 -88 176 -153 380 -140 440 4 18
8 34 10 36 50 38 26 37 662 34 l609 -3 25 -29z"/>
<path d="M3445 5516 c-112 -50 -98 -221 20 -240 17 -3 75 -8 130 -11 108 -6
119 -7 240 -31 404 -78 783 -321 1047 -672 75 -99 168 -254 209 -348 65 -150
127 -362 144 -489 3 -27 8 -63 11 -80 2 -16 6 -77 9 -134 4 -122 15 -153 62
-182 63 -39 139 -22 179 39 36 54 18 304 -41 577 -14 69 -70 236 -108 325
-242 567 -708 995 -1272 1171 -58 18 -184 49 -215 54 -29 4 -115 18 -135 21
-10 2 -71 6 -135 9 -85 4 -123 1 -145 -9z"/>
<path d="M3453 4619 c-38 -11 -79 -61 -86 -105 -7 -43 23 -105 60 -126 19 -11
62 -19 116 -23 417 -26 762 -301 867 -690 20 -73 26 -115 35 -225 3 -41 12
-74 23 -90 54 -73 170 -67 216 12 44 74 2 345 -84 540 -102 232 -305 450 -530
570 -88 47 -182 83 -276 107 -124 31 -286 45 -341 30z"/>
<path d="M3459 3873 c-105 -65 -61 -233 61 -233 17 0 47 -7 68 -16 73 -30 112
-89 117 -173 2 -57 14 -79 51 -105 58 -39 128 -23 164 37 40 65 15 217 -50
312 -95 138 -320 235 -411 178z"/>
</g>
</svg>
