<svg xmlns="http://www.w3.org/2000/svg" id="Слой_1" x="0" y="0" version="1.1" viewBox="0 0 651 100.6" xml:space="preserve"><style id="style2" type="text/css">.st0{fill:#fff}</style><g id="g34"><path id="path4" d="M201 26.6c0 1.9-1.5 3.3-3.2 3.3h-15.9c-1.3 0-2.6.2-3.7.7-1.2.4-2.2 1.1-3.1 1.9-.9.8-1.6 1.7-2.1 2.8s-.7 2.2-.7 3.4.2 2.3.7 3.4 1.2 2 2.1 2.8c.9.8 1.9 1.4 3.1 1.9 1.2.4 2.4.7 3.7.7h5.1c2.3 0 4.5.4 6.5 1.2 2.1.8 3.8 1.9 5.3 3.3s2.7 3 3.6 4.9c.9 1.9 1.3 3.8 1.3 5.9s-.4 4.1-1.3 5.9c-.9 1.9-2.1 3.5-3.6 4.8-1.5 1.4-3.3 2.5-5.3 3.2-2.1.8-4.2 1.2-6.5 1.2h-16c-1.8 0-3.2-1.5-3.2-3.2 0-1.8 1.5-3.2 3.2-3.2h16c1.3 0 2.6-.2 3.7-.7 1.2-.4 2.2-1.1 3-1.9s1.5-1.7 2.1-2.8c.5-1.1.8-2.2.8-3.4s-.3-2.3-.8-3.4-1.2-2-2.1-2.8c-.8-.8-1.9-1.4-3-1.9-1.2-.4-2.4-.7-3.7-.7h-5.1c-2.3 0-4.5-.4-6.5-1.2-2.1-.8-3.8-1.9-5.4-3.2-1.5-1.4-2.7-3-3.6-4.9-.9-1.9-1.3-3.8-1.3-5.9 0-2.1.4-4.1 1.3-6 .9-1.8 2.1-3.5 3.6-4.8 1.5-1.4 3.3-2.5 5.4-3.3 2.1-.8 4.2-1.2 6.5-1.2h15.9c1.7 0 3.2 1.4 3.2 3.2z" class="st0"/><path id="path6" d="M251.7 46.3c2 0 3.6 1.6 3.6 3.6v1.5c0 2-1.6 3.6-3.6 3.6s-3.6-1.6-3.6-3.6v-1.5c.1-2 1.7-3.6 3.6-3.6z" class="st0"/><path id="path8" d="M308.4 23.4c2 0 3.6 1.6 3.6 3.6v44.3h28.8c1.8 0 3.2 1.5 3.2 3.2 0 1.8-1.5 3.2-3.2 3.2h-33.5c-1.4 0-2.5-1.1-2.5-2.5V27c0-2 1.6-3.6 3.6-3.6z" class="st0"/><path id="path10" d="M397.4 46.3c2 0 3.6 1.6 3.6 3.6v1.5c0 2-1.6 3.6-3.6 3.6s-3.6-1.6-3.6-3.6v-1.5c0-2 1.6-3.6 3.6-3.6z" class="st0"/><path id="path12" d="M453 58.4v16.1c0 2-1.6 3.6-3.6 3.6s-3.6-1.6-3.6-3.6V42.9c0-2.7.6-5.3 1.7-7.7s2.7-4.5 4.7-6.3 4.3-3.2 6.9-4.3c2.7-1 5.5-1.6 8.6-1.6 3 0 5.8.5 8.5 1.6 2.7 1 5 2.5 6.9 4.3 2 1.8 3.5 3.9 4.7 6.3 1.1 2.4 1.7 5 1.7 7.7v31.6c0 2-1.6 3.6-3.6 3.6s-3.6-1.6-3.6-3.6V58.4H453zm29.4-15.5c0-1.8-.4-3.6-1.1-5.2-.8-1.6-1.8-3-3.2-4.3-1.3-1.2-2.9-2.2-4.7-2.9-1.8-.7-3.7-1-5.7-1s-3.9.3-5.7 1c-1.8.7-3.3 1.7-4.7 2.9-1.3 1.2-2.4 2.6-3.2 4.3-.8 1.6-1.1 3.3-1.1 5.2v9h29.4v-9z" class="st0"/><path id="path14" d="M549.1 46.3c2 0 3.6 1.6 3.6 3.6v1.5c0 2-1.6 3.6-3.6 3.6s-3.6-1.6-3.6-3.6v-1.5c0-2 1.6-3.6 3.6-3.6z" class="st0"/><path id="path16" d="M591.1 38.3c0-2.1.4-4.1 1.3-5.9.9-1.8 2.1-3.5 3.6-4.9s3.3-2.5 5.3-3.3c2.1-.8 4.2-1.2 6.5-1.2 2.7 0 5.2.5 7.4 1.6 1.3.6 2.5 1.3 3.6 2.2 1.3 1 3.1 1 4.4 0 1.1-.8 2.2-1.5 3.5-2.1 2.3-1 4.8-1.6 7.5-1.6 2.3 0 4.5.4 6.5 1.2 2 .8 3.8 1.9 5.3 3.3s2.7 3 3.6 4.9c.9 1.8 1.3 3.8 1.3 5.9v36.3c0 2-1.6 3.6-3.6 3.6h-.1c-2 0-3.6-1.6-3.6-3.6V38.3c0-1.2-.2-2.3-.7-3.4-.5-1.1-1.2-2-2.1-2.8-.9-.8-1.9-1.4-3-1.9s-2.4-.7-3.7-.7-2.6.2-3.7.7c-1.2.5-2.2 1.1-3.1 1.9-.9.8-1.6 1.7-2.1 2.8s-.7 2.2-.7 3.4v36.3c0 2-1.6 3.6-3.6 3.6h.1c-2 0-3.6-1.6-3.6-3.6V38.3c0-1.2-.2-2.3-.7-3.4-.5-1.1-1.2-2-2.1-2.8-.9-.8-1.9-1.4-3.1-1.9-1.2-.5-2.4-.7-3.7-.7s-2.6.2-3.7.7c-1.2.5-2.2 1.1-3.1 1.9-.9.8-1.6 1.7-2.1 2.8s-.7 2.2-.7 3.4v36.3c0 2-1.6 3.6-3.6 3.6s-3.6-1.6-3.6-3.6l.1-36.3z" class="st0"/><g id="g20"><path id="path18" d="M95.2 42.1c-1.3 0-2.3-1-2.3-2.3 0-17.9-14-32.4-31.2-32.4-1.3 0-2.3-1-2.3-2.3s1-2.3 2.3-2.3c19.7 0 35.7 16.6 35.7 37 .1 1.3-.9 2.3-2.2 2.3z" class="st0"/></g><g id="g24"><path id="path22" d="M80.8 42.1c-1.3 0-2.3-1-2.3-2.3 0-9.1-7.5-16.5-16.8-16.5-1.3 0-2.3-1-2.3-2.3s1-2.3 2.3-2.3c11.8 0 21.3 9.4 21.3 21 .1 1.4-.9 2.4-2.2 2.4z" class="st0"/></g><g id="g28"><path id="path26" d="M67 41.7c-.9-.3-1.6-1.3-1.5-2.3.1-1.6-1.3-3.3-3.4-3.2-.9 0-1.7-.6-1.9-1.5-.4-1.6.8-3 2.2-2.9 4.4.3 7.6 3.9 7.3 8-.2 1.3-1.4 2.3-2.7 1.9z" class="st0"/></g><path id="path30" d="M53.3 6.2v42.4h.3V6.2h-.3z" class="st0"/><path id="path32" d="M50.3 100.6c27.7 0 50.3-22.6 50.3-50.3 0-.9-.7-1.6-1.6-1.6H53.3V6.2c.1 0-.1 0 0 0V1.7c0-.9-.7-1.6-1.6-1.6h-1.5C22.6 0 0 22.6 0 50.3s22.6 50.3 50.3 50.3zm43.8-44.1c-1 7.1-3.7 13.6-7.6 19.2-.5.7-1.5.9-2.2.4-6.9-4.3-12-11.3-13.8-19.5-.2-1 .6-2 1.6-2h20.4c1 0 1.7.9 1.6 1.9zm-39.2-1.9h7.6c.8 0 1.5.6 1.6 1.4 1.7 10.1 7.5 18.9 15.6 24.4.9.6 1 1.8.2 2.5C73.2 89 64.5 93.1 55 94.1c-1 .1-1.8-.6-1.8-1.6V56.3c.1-.9.9-1.7 1.7-1.7zm-46.8 0h20.8c1 0 1.8 1 1.6 2-1.8 8.3-7 15.4-14.1 19.7-.7.4-1.7.3-2.2-.4-4-5.6-6.7-12.2-7.7-19.4-.1-1 .6-1.9 1.6-1.9zm37.4 39.6c-9.4-1-18-5-24.7-11.1-.8-.7-.7-2 .2-2.5C29.3 75 35.2 66.2 36.8 56c.1-.8.8-1.4 1.6-1.4h7.3c.9 0 1.6.7 1.6 1.6v36.4c0 1-.9 1.7-1.8 1.6zM47.3 8v39c0 .9-.7 1.6-1.6 1.6h-6.9c-.8 0-1.5-.6-1.6-1.5-.9-11.4-7-21.3-15.9-27.4-.9-.6-1-1.9-.2-2.6 6.7-5.9 15.1-9.8 24.4-10.8.9-.1 1.8.7 1.8 1.7zM16.7 24C24.5 28.9 30 37.2 31 46.8c.1 1-.6 1.8-1.6 1.8H7.8c-1 0-1.7-.8-1.6-1.8.7-8.3 3.6-16 8.3-22.4.5-.7 1.5-.9 2.2-.4z" class="st0"/></g></svg>