<svg xmlns="http://www.w3.org/2000/svg" id="Layer_1" x="0" y="0" version="1.1" viewBox="0 0 1022.7 158" xml:space="preserve">
  <style>
    .st0{fill:#894083}.st3{display:none}.st4,.st5{display:inline}.st5,.st6{fill:#999}.st7{display:inline}.st7,.st8{fill:#fff}
  </style>
  <path d="M315.7 41.8v.1c0 2.8-2.3 5.1-5.1 5.1h-24.9c-2.1 0-4 .4-5.9 1.1-1.8.7-3.5 1.7-4.8 2.9-1.4 1.3-2.4 2.7-3.2 4.4-.8 1.7-1.2 3.5-1.2 5.3 0 1.9.4 3.6 1.2 5.3.8 1.6 1.8 3.1 3.2 4.3 1.4 1.3 3 2.2 4.8 2.9 1.8.7 3.8 1.1 5.9 1.1h8c3.6 0 7 .6 10.3 1.9 3.2 1.3 6 3 8.4 5.2 2.4 2.2 4.2 4.7 5.6 7.7 1.4 2.9 2.1 6 2.1 9.3 0 3.3-.7 6.4-2.1 9.3-1.4 2.9-3.2 5.5-5.6 7.6-2.4 2.2-5.2 3.9-8.4 5.1-3.2 1.3-6.6 1.9-10.3 1.9h-25.1c-2.8 0-5.1-2.3-5.1-5.1s2.3-5.1 5.1-5.1h25.1c2.1 0 4-.4 5.9-1.1 1.8-.7 3.4-1.7 4.8-2.9 1.3-1.2 2.4-2.7 3.2-4.4.8-1.7 1.2-3.5 1.2-5.3s-.4-3.7-1.2-5.3c-.8-1.7-1.9-3.1-3.2-4.4-1.3-1.3-2.9-2.2-4.8-2.9-1.8-.7-3.8-1.1-5.9-1.1h-8c-3.6 0-7-.6-10.2-1.9-3.2-1.2-6-2.9-8.4-5.1-2.4-2.1-4.3-4.7-5.7-7.6-1.4-2.9-2.1-6-2.1-9.3 0-3.4.7-6.5 2.1-9.4 1.4-2.9 3.3-5.4 5.7-7.6 2.4-2.2 5.2-3.9 8.4-5.2 3.2-1.2 6.6-1.9 10.2-1.9h24.9c2.8 0 5.1 2.3 5.1 5.1zm79.7 30.9c3.1 0 5.6 2.5 5.6 5.6v2.4c0 3.1-2.5 5.6-5.6 5.6-3.1 0-5.6-2.5-5.6-5.6v-2.4c0-3.1 2.5-5.6 5.6-5.6zm89.1-35.9c3.1 0 5.6 2.5 5.6 5.6V112h45.3c2.8 0 5.1 2.3 5.1 5.1s-2.3 5.1-5.1 5.1h-52.6c-2.2 0-4-1.8-4-4V42.4c.1-3.1 2.6-5.6 5.7-5.6zm139.8 35.9c3.1 0 5.6 2.5 5.6 5.6v2.4c0 3.1-2.5 5.6-5.6 5.6-3.1 0-5.6-2.5-5.6-5.6v-2.4c-.1-3.1 2.5-5.6 5.6-5.6zm87.4 19.1v25.3c0 3.1-2.5 5.7-5.7 5.7-3.1 0-5.7-2.5-5.7-5.7V67.5c0-4.3.9-8.3 2.7-12.1 1.8-3.8 4.3-7.1 7.3-9.9 3.1-2.8 6.7-5 10.9-6.7 4.2-1.6 8.7-2.5 13.5-2.5 4.7 0 9.2.8 13.3 2.5 4.2 1.6 7.8 3.9 10.9 6.7 3.1 2.8 5.5 6.1 7.3 9.9 1.8 3.8 2.7 7.8 2.7 12.1v49.7c0 3.1-2.5 5.6-5.6 5.6-3.1 0-5.6-2.5-5.6-5.6V91.8h-46zm46.1-24.4c0-2.9-.6-5.6-1.8-8.1-1.2-2.5-2.9-4.8-5-6.7-2.1-1.9-4.6-3.4-7.3-4.5-2.8-1.1-5.8-1.6-9-1.6s-6.2.5-9 1.6-5.2 2.6-7.3 4.5c-2.1 1.9-3.8 4.1-5 6.7-1.2 2.5-1.8 5.3-1.8 8.1v14.2h46.2V67.4zm104.7 5.3c3.1 0 5.6 2.5 5.6 5.6v2.4c0 3.1-2.5 5.6-5.6 5.6-3.1 0-5.6-2.5-5.6-5.6v-2.4c0-3.1 2.5-5.6 5.6-5.6zm66.1-12.5c0-3.3.7-6.4 2.1-9.3 1.4-2.9 3.2-5.4 5.6-7.6 2.4-2.2 5.2-3.9 8.4-5.2 3.2-1.2 6.6-1.9 10.2-1.9 4.2 0 8.1.8 11.7 2.5 2 .9 3.9 2.1 5.6 3.4 2.1 1.6 4.9 1.6 7 0 1.7-1.3 3.5-2.4 5.6-3.4 3.6-1.6 7.5-2.5 11.7-2.5 3.6 0 7 .6 10.2 1.9 3.2 1.3 6 3 8.4 5.2 2.4 2.2 4.3 4.7 5.7 7.6 1.4 2.9 2.1 6 2.1 9.3v57c0 3.1-2.5 5.6-5.6 5.6h-.1c-3.1 0-5.6-2.5-5.6-5.6v-57c0-1.9-.4-3.7-1.2-5.3-.8-1.7-1.8-3.1-3.2-4.3-1.4-1.2-3-2.2-4.8-2.9-1.8-.7-3.7-1.1-5.8-1.1s-4 .4-5.9 1.1c-1.8.7-3.5 1.7-4.8 2.9-1.4 1.2-2.5 2.7-3.2 4.3-.8 1.7-1.2 3.5-1.2 5.3v57c0 3.1-2.5 5.6-5.6 5.6h-.1c-3.1 0-5.6-2.5-5.6-5.6v-57c0-1.9-.4-3.7-1.2-5.3-.8-1.7-1.8-3.1-3.2-4.3-1.4-1.2-3-2.2-4.8-2.9s-3.8-1.1-5.9-1.1c-2.1 0-4 .4-5.9 1.1-1.8.7-3.5 1.7-4.8 2.9-1.4 1.2-2.4 2.7-3.2 4.3-.8 1.7-1.2 3.5-1.2 5.3v57c0 3.1-2.5 5.6-5.6 5.6-3.1 0-5.6-2.5-5.6-5.6v-57zm-779.1 6c-2 0-3.6-1.6-3.6-3.6 0-28.1-22-51-48.9-51-2 0-3.6-1.6-3.6-3.6S95 4.4 97 4.4c30.9 0 56.1 26.1 56.1 58.1 0 2.1-1.6 3.7-3.6 3.7z" class="st0"/>
  <path d="M127 66.2c-2 0-3.6-1.6-3.6-3.6 0-14.3-11.8-25.9-26.4-25.9-2 0-3.6-1.6-3.6-3.6s1.6-3.6 3.6-3.6c18.5 0 33.5 14.8 33.5 33.1.1 2-1.5 3.6-3.5 3.6zm-21.8-.6c-1.5-.4-2.5-2-2.4-3.6.2-2.5-2-5.1-5.3-5.1-1.4 0-2.7-1-3.1-2.4-.7-2.5 1.2-4.7 3.4-4.5 6.8.5 12 6.2 11.5 12.5-.1 2.1-2.1 3.7-4.1 3.1z" class="st0"/>
  <path fill="none" d="M100.5 85.8H83.8v62.4c17.2-1.2 32.8-8.6 44.3-20.1-14.9-8.9-25.3-24.3-27.6-42.3zm-52 0H9.9C11.2 99 16.1 111 23.7 121c13-7.1 22.5-20 24.8-35.2zM83.8 9.7v66.6h.4V9.8c-.1 0-.3-.1-.4-.1zm50.6 111c7.5-9.9 12.4-21.9 13.7-34.9h-38c2.3 15.1 11.6 27.8 24.3 34.9zM58.5 76.3h15.8V9.7c-16.9 1.2-32.1 8.4-43.6 19.5 16 9.8 27 27.1 27.8 47.1zm-28.3 52c11.5 11.4 26.9 18.8 44.1 19.9V85.8H58.1c-2.3 18.1-12.9 33.6-27.9 42.5zm18.7-52c-.8-17.1-10.6-31.9-24.8-39.8-8.6 11.1-14 24.9-14.6 39.8h39.4z"/>
  <path fill="#ff8600" d="M79 158c43.6 0 79-35.4 79-79 0-1.4-1.2-2.5-2.5-2.5H83.9V9.7c.1 0-.1 0 0 0l.1-7.1C84 1.2 82.9.1 81.5 0h-2.4C35.4 0 0 35.4 0 79s35.4 79 79 79zm68.8-69.3c-1.6 11.1-5.8 21.4-12 30.1-.8 1.1-2.3 1.4-3.4.7-10.9-6.8-18.9-17.7-21.7-30.6-.3-1.6.9-3.1 2.5-3.1h32.1c1.5 0 2.7 1.4 2.5 2.9zm-61.5-2.9h12c1.3 0 2.3.9 2.5 2.2 2.6 15.9 11.8 29.7 24.6 38.4 1.4.9 1.5 2.9.3 4-10.6 9.6-24.1 16-39.1 17.6-1.5.2-2.8-1-2.8-2.5V88.4c0-1.4 1.1-2.6 2.5-2.6zm-73.5 0h32.7c1.6 0 2.8 1.5 2.5 3.1-3 13.1-11.1 24.1-22.2 30.9-1.1.7-2.6.4-3.4-.7-6.3-8.8-10.6-19.2-12.1-30.4-.3-1.5.9-2.9 2.5-2.9zM71.4 148c-14.8-1.6-28.3-7.9-38.8-17.4-1.2-1.1-1.1-3.1.3-4 13-8.7 22.3-22.6 24.9-38.6.2-1.2 1.3-2.2 2.5-2.2h11.4c1.4 0 2.5 1.1 2.5 2.5v57.1c0 1.6-1.3 2.8-2.8 2.6zm2.8-135.5v61.2c0 1.4-1.1 2.5-2.5 2.5H60.9c-1.3 0-2.4-1-2.5-2.3-1.4-17.9-11-33.5-25-43.1-1.4-.9-1.5-2.9-.3-4C43.6 17.7 56.8 11.6 71.4 10c1.5-.2 2.8 1 2.8 2.5zm-48 25.1c12.3 7.7 20.9 20.7 22.5 35.8.2 1.5-1 2.8-2.5 2.8H12.3c-1.5 0-2.6-1.3-2.5-2.8 1-13.1 5.7-25.2 13-35.3.8-.9 2.3-1.2 3.4-.5z"/>
  <g class="st3">
    <path d="M315.7 41.8v.1c0 2.8-2.3 5.1-5.1 5.1h-24.9c-2.1 0-4 .4-5.9 1.1-1.8.7-3.5 1.7-4.8 2.9-1.4 1.3-2.4 2.7-3.2 4.4-.8 1.7-1.2 3.5-1.2 5.3 0 1.9.4 3.6 1.2 5.3.8 1.6 1.8 3.1 3.2 4.3 1.4 1.3 3 2.2 4.8 2.9 1.8.7 3.8 1.1 5.9 1.1h8c3.6 0 7 .6 10.3 1.9 3.2 1.3 6 3 8.4 5.2 2.4 2.2 4.2 4.7 5.6 7.7 1.4 2.9 2.1 6 2.1 9.3 0 3.3-.7 6.4-2.1 9.3-1.4 2.9-3.2 5.5-5.6 7.6-2.4 2.2-5.2 3.9-8.4 5.1-3.2 1.3-6.6 1.9-10.3 1.9h-25.1c-2.8 0-5.1-2.3-5.1-5.1s2.3-5.1 5.1-5.1h25.1c2.1 0 4-.4 5.9-1.1 1.8-.7 3.4-1.7 4.8-2.9 1.3-1.2 2.4-2.7 3.2-4.4.8-1.7 1.2-3.5 1.2-5.3s-.4-3.7-1.2-5.3c-.8-1.7-1.9-3.1-3.2-4.4-1.3-1.3-2.9-2.2-4.8-2.9-1.8-.7-3.8-1.1-5.9-1.1h-8c-3.6 0-7-.6-10.2-1.9-3.2-1.2-6-2.9-8.4-5.1-2.4-2.1-4.3-4.7-5.7-7.6-1.4-2.9-2.1-6-2.1-9.3 0-3.4.7-6.5 2.1-9.4 1.4-2.9 3.3-5.4 5.7-7.6 2.4-2.2 5.2-3.9 8.4-5.2 3.2-1.2 6.6-1.9 10.2-1.9h24.9c2.8 0 5.1 2.3 5.1 5.1zm79.7 30.9c3.1 0 5.6 2.5 5.6 5.6v2.4c0 3.1-2.5 5.6-5.6 5.6-3.1 0-5.6-2.5-5.6-5.6v-2.4c0-3.1 2.5-5.6 5.6-5.6zm89.1-35.9c3.1 0 5.6 2.5 5.6 5.6V112h45.3c2.8 0 5.1 2.3 5.1 5.1s-2.3 5.1-5.1 5.1h-52.6c-2.2 0-4-1.8-4-4V42.4c.1-3.1 2.6-5.6 5.7-5.6zm139.8 35.9c3.1 0 5.6 2.5 5.6 5.6v2.4c0 3.1-2.5 5.6-5.6 5.6-3.1 0-5.6-2.5-5.6-5.6v-2.4c-.1-3.1 2.5-5.6 5.6-5.6zm87.4 19.1v25.3c0 3.1-2.5 5.7-5.7 5.7-3.1 0-5.7-2.5-5.7-5.7V67.5c0-4.3.9-8.3 2.7-12.1 1.8-3.8 4.3-7.1 7.3-9.9 3.1-2.8 6.7-5 10.9-6.7 4.2-1.6 8.7-2.5 13.5-2.5 4.7 0 9.2.8 13.3 2.5 4.2 1.6 7.8 3.9 10.9 6.7 3.1 2.8 5.5 6.1 7.3 9.9 1.8 3.8 2.7 7.8 2.7 12.1v49.7c0 3.1-2.5 5.6-5.6 5.6-3.1 0-5.6-2.5-5.6-5.6V91.8h-46zm46.1-24.4c0-2.9-.6-5.6-1.8-8.1-1.2-2.5-2.9-4.8-5-6.7-2.1-1.9-4.6-3.4-7.3-4.5-2.8-1.1-5.8-1.6-9-1.6s-6.2.5-9 1.6-5.2 2.6-7.3 4.5c-2.1 1.9-3.8 4.1-5 6.7-1.2 2.5-1.8 5.3-1.8 8.1v14.2h46.2V67.4zm104.7 5.3c3.1 0 5.6 2.5 5.6 5.6v2.4c0 3.1-2.5 5.6-5.6 5.6-3.1 0-5.6-2.5-5.6-5.6v-2.4c0-3.1 2.5-5.6 5.6-5.6zm66.1-12.5c0-3.3.7-6.4 2.1-9.3 1.4-2.9 3.2-5.4 5.6-7.6 2.4-2.2 5.2-3.9 8.4-5.2 3.2-1.2 6.6-1.9 10.2-1.9 4.2 0 8.1.8 11.7 2.5 2 .9 3.9 2.1 5.6 3.4 2.1 1.6 4.9 1.6 7 0 1.7-1.3 3.5-2.4 5.6-3.4 3.6-1.6 7.5-2.5 11.7-2.5 3.6 0 7 .6 10.2 1.9 3.2 1.3 6 3 8.4 5.2 2.4 2.2 4.3 4.7 5.7 7.6 1.4 2.9 2.1 6 2.1 9.3v57c0 3.1-2.5 5.6-5.6 5.6h-.1c-3.1 0-5.6-2.5-5.6-5.6v-57c0-1.9-.4-3.7-1.2-5.3-.8-1.7-1.8-3.1-3.2-4.3-1.4-1.2-3-2.2-4.8-2.9-1.8-.7-3.7-1.1-5.8-1.1s-4 .4-5.9 1.1c-1.8.7-3.5 1.7-4.8 2.9-1.4 1.2-2.5 2.7-3.2 4.3-.8 1.7-1.2 3.5-1.2 5.3v57c0 3.1-2.5 5.6-5.6 5.6h-.1c-3.1 0-5.6-2.5-5.6-5.6v-57c0-1.9-.4-3.7-1.2-5.3-.8-1.7-1.8-3.1-3.2-4.3-1.4-1.2-3-2.2-4.8-2.9s-3.8-1.1-5.9-1.1c-2.1 0-4 .4-5.9 1.1-1.8.7-3.5 1.7-4.8 2.9-1.4 1.2-2.4 2.7-3.2 4.3-.8 1.7-1.2 3.5-1.2 5.3v57c0 3.1-2.5 5.6-5.6 5.6-3.1 0-5.6-2.5-5.6-5.6v-57z" class="st4"/>
    <path d="M149.5 66.2c-2 0-3.6-1.6-3.6-3.6 0-28.1-22-51-48.9-51-2 0-3.6-1.6-3.6-3.6S95 4.4 97 4.4c30.9 0 56.1 26.1 56.1 58.1 0 2.1-1.6 3.7-3.6 3.7z"/>
    <path d="M127 66.2c-2 0-3.6-1.6-3.6-3.6 0-14.3-11.8-25.9-26.4-25.9-2 0-3.6-1.6-3.6-3.6s1.6-3.6 3.6-3.6c18.5 0 33.5 14.8 33.5 33.1.1 2-1.5 3.6-3.5 3.6zm-21.8-.6c-1.5-.4-2.5-2-2.4-3.6.2-2.5-2-5.1-5.3-5.1-1.4 0-2.7-1-3.1-2.4-.7-2.5 1.2-4.7 3.4-4.5 6.8.5 12 6.2 11.5 12.5-.1 2.1-2.1 3.7-4.1 3.1z"/>
    <path d="M83.8 9.7v66.6h.4V9.8c-.1 0-.3-.1-.4-.1z" class="st4"/>
    <path d="M79 158c43.6 0 79-35.4 79-79 0-1.4-1.2-2.5-2.5-2.5H83.9V9.7c.1 0-.1 0 0 0l.1-7.1C84 1.2 82.9.1 81.5 0h-2.4C35.4 0 0 35.4 0 79s35.4 79 79 79zm68.8-69.3c-1.6 11.1-5.8 21.4-12 30.1-.8 1.1-2.3 1.4-3.4.7-10.9-6.8-18.9-17.7-21.7-30.6-.3-1.6.9-3.1 2.5-3.1h32.1c1.5 0 2.7 1.4 2.5 2.9zm-61.5-2.9h12c1.3 0 2.3.9 2.5 2.2 2.6 15.9 11.8 29.7 24.6 38.4 1.4.9 1.5 2.9.3 4-10.6 9.6-24.1 16-39.1 17.6-1.5.2-2.8-1-2.8-2.5V88.4c0-1.4 1.1-2.6 2.5-2.6zm-73.5 0h32.7c1.6 0 2.8 1.5 2.5 3.1-3 13.1-11.1 24.1-22.2 30.9-1.1.7-2.6.4-3.4-.7-6.3-8.8-10.6-19.2-12.1-30.4-.3-1.5.9-2.9 2.5-2.9zM71.4 148c-14.8-1.6-28.3-7.9-38.8-17.4-1.2-1.1-1.1-3.1.3-4 13-8.7 22.3-22.6 24.9-38.6.2-1.2 1.3-2.2 2.5-2.2h11.4c1.4 0 2.5 1.1 2.5 2.5v57.1c0 1.6-1.3 2.8-2.8 2.6zm2.8-135.5v61.2c0 1.4-1.1 2.5-2.5 2.5H60.9c-1.3 0-2.4-1-2.5-2.3-1.4-17.9-11-33.5-25-43.1-1.4-.9-1.5-2.9-.3-4C43.6 17.7 56.8 11.6 71.4 10c1.5-.2 2.8 1 2.8 2.5zm-48 25.1c12.3 7.7 20.9 20.7 22.5 35.8.2 1.5-1 2.8-2.5 2.8H12.3c-1.5 0-2.6-1.3-2.5-2.8 1-13.1 5.7-25.2 13-35.3.8-.9 2.3-1.2 3.4-.5z" class="st4"/>
  </g>
  <g class="st3">
    <path d="M315.7 41.8v.1c0 2.8-2.3 5.1-5.1 5.1h-24.9c-2.1 0-4 .4-5.9 1.1-1.8.7-3.5 1.7-4.8 2.9-1.4 1.3-2.4 2.7-3.2 4.4-.8 1.7-1.2 3.5-1.2 5.3 0 1.9.4 3.6 1.2 5.3.8 1.6 1.8 3.1 3.2 4.3 1.4 1.3 3 2.2 4.8 2.9 1.8.7 3.8 1.1 5.9 1.1h8c3.6 0 7 .6 10.3 1.9 3.2 1.3 6 3 8.4 5.2 2.4 2.2 4.2 4.7 5.6 7.7 1.4 2.9 2.1 6 2.1 9.3 0 3.3-.7 6.4-2.1 9.3-1.4 2.9-3.2 5.5-5.6 7.6-2.4 2.2-5.2 3.9-8.4 5.1-3.2 1.3-6.6 1.9-10.3 1.9h-25.1c-2.8 0-5.1-2.3-5.1-5.1s2.3-5.1 5.1-5.1h25.1c2.1 0 4-.4 5.9-1.1 1.8-.7 3.4-1.7 4.8-2.9 1.3-1.2 2.4-2.7 3.2-4.4.8-1.7 1.2-3.5 1.2-5.3s-.4-3.7-1.2-5.3c-.8-1.7-1.9-3.1-3.2-4.4-1.3-1.3-2.9-2.2-4.8-2.9-1.8-.7-3.8-1.1-5.9-1.1h-8c-3.6 0-7-.6-10.2-1.9-3.2-1.2-6-2.9-8.4-5.1-2.4-2.1-4.3-4.7-5.7-7.6-1.4-2.9-2.1-6-2.1-9.3 0-3.4.7-6.5 2.1-9.4 1.4-2.9 3.3-5.4 5.7-7.6 2.4-2.2 5.2-3.9 8.4-5.2 3.2-1.2 6.6-1.9 10.2-1.9h24.9c2.8 0 5.1 2.3 5.1 5.1zm79.7 30.9c3.1 0 5.6 2.5 5.6 5.6v2.4c0 3.1-2.5 5.6-5.6 5.6-3.1 0-5.6-2.5-5.6-5.6v-2.4c0-3.1 2.5-5.6 5.6-5.6zm89.1-35.9c3.1 0 5.6 2.5 5.6 5.6V112h45.3c2.8 0 5.1 2.3 5.1 5.1s-2.3 5.1-5.1 5.1h-52.6c-2.2 0-4-1.8-4-4V42.4c.1-3.1 2.6-5.6 5.7-5.6zm139.8 35.9c3.1 0 5.6 2.5 5.6 5.6v2.4c0 3.1-2.5 5.6-5.6 5.6-3.1 0-5.6-2.5-5.6-5.6v-2.4c-.1-3.1 2.5-5.6 5.6-5.6zm87.4 19.1v25.3c0 3.1-2.5 5.7-5.7 5.7-3.1 0-5.7-2.5-5.7-5.7V67.5c0-4.3.9-8.3 2.7-12.1 1.8-3.8 4.3-7.1 7.3-9.9 3.1-2.8 6.7-5 10.9-6.7 4.2-1.6 8.7-2.5 13.5-2.5 4.7 0 9.2.8 13.3 2.5 4.2 1.6 7.8 3.9 10.9 6.7 3.1 2.8 5.5 6.1 7.3 9.9 1.8 3.8 2.7 7.8 2.7 12.1v49.7c0 3.1-2.5 5.6-5.6 5.6-3.1 0-5.6-2.5-5.6-5.6V91.8h-46zm46.1-24.4c0-2.9-.6-5.6-1.8-8.1-1.2-2.5-2.9-4.8-5-6.7-2.1-1.9-4.6-3.4-7.3-4.5-2.8-1.1-5.8-1.6-9-1.6s-6.2.5-9 1.6-5.2 2.6-7.3 4.5c-2.1 1.9-3.8 4.1-5 6.7-1.2 2.5-1.8 5.3-1.8 8.1v14.2h46.2V67.4zm104.7 5.3c3.1 0 5.6 2.5 5.6 5.6v2.4c0 3.1-2.5 5.6-5.6 5.6-3.1 0-5.6-2.5-5.6-5.6v-2.4c0-3.1 2.5-5.6 5.6-5.6zm66.1-12.5c0-3.3.7-6.4 2.1-9.3 1.4-2.9 3.2-5.4 5.6-7.6 2.4-2.2 5.2-3.9 8.4-5.2 3.2-1.2 6.6-1.9 10.2-1.9 4.2 0 8.1.8 11.7 2.5 2 .9 3.9 2.1 5.6 3.4 2.1 1.6 4.9 1.6 7 0 1.7-1.3 3.5-2.4 5.6-3.4 3.6-1.6 7.5-2.5 11.7-2.5 3.6 0 7 .6 10.2 1.9 3.2 1.3 6 3 8.4 5.2 2.4 2.2 4.3 4.7 5.7 7.6 1.4 2.9 2.1 6 2.1 9.3v57c0 3.1-2.5 5.6-5.6 5.6h-.1c-3.1 0-5.6-2.5-5.6-5.6v-57c0-1.9-.4-3.7-1.2-5.3-.8-1.7-1.8-3.1-3.2-4.3-1.4-1.2-3-2.2-4.8-2.9-1.8-.7-3.7-1.1-5.8-1.1s-4 .4-5.9 1.1c-1.8.7-3.5 1.7-4.8 2.9-1.4 1.2-2.5 2.7-3.2 4.3-.8 1.7-1.2 3.5-1.2 5.3v57c0 3.1-2.5 5.6-5.6 5.6h-.1c-3.1 0-5.6-2.5-5.6-5.6v-57c0-1.9-.4-3.7-1.2-5.3-.8-1.7-1.8-3.1-3.2-4.3-1.4-1.2-3-2.2-4.8-2.9s-3.8-1.1-5.9-1.1c-2.1 0-4 .4-5.9 1.1-1.8.7-3.5 1.7-4.8 2.9-1.4 1.2-2.4 2.7-3.2 4.3-.8 1.7-1.2 3.5-1.2 5.3v57c0 3.1-2.5 5.6-5.6 5.6-3.1 0-5.6-2.5-5.6-5.6v-57z" class="st5"/>
    <g class="st4">
      <path d="M149.5 66.2c-2 0-3.6-1.6-3.6-3.6 0-28.1-22-51-48.9-51-2 0-3.6-1.6-3.6-3.6S95 4.4 97 4.4c30.9 0 56.1 26.1 56.1 58.1 0 2.1-1.6 3.7-3.6 3.7z" class="st6"/>
    </g>
    <g class="st4">
      <path d="M127 66.2c-2 0-3.6-1.6-3.6-3.6 0-14.3-11.8-25.9-26.4-25.9-2 0-3.6-1.6-3.6-3.6s1.6-3.6 3.6-3.6c18.5 0 33.5 14.8 33.5 33.1.1 2-1.5 3.6-3.5 3.6z" class="st6"/>
    </g>
    <g class="st4">
      <path d="M105.2 65.6c-1.5-.4-2.5-2-2.4-3.6.2-2.5-2-5.1-5.3-5.1-1.4 0-2.7-1-3.1-2.4-.7-2.5 1.2-4.7 3.4-4.5 6.8.5 12 6.2 11.5 12.5-.1 2.1-2.1 3.7-4.1 3.1z" class="st6"/>
    </g>
    <path d="M83.8 9.7v66.6h.4V9.8c-.1 0-.3-.1-.4-.1z" class="st5"/>
    <path d="M79 158c43.6 0 79-35.4 79-79 0-1.4-1.2-2.5-2.5-2.5H83.9V9.7c.1 0-.1 0 0 0l.1-7.1C84 1.2 82.9.1 81.5 0h-2.4C35.4 0 0 35.4 0 79s35.4 79 79 79zm68.8-69.3c-1.6 11.1-5.8 21.4-12 30.1-.8 1.1-2.3 1.4-3.4.7-10.9-6.8-18.9-17.7-21.7-30.6-.3-1.6.9-3.1 2.5-3.1h32.1c1.5 0 2.7 1.4 2.5 2.9zm-61.5-2.9h12c1.3 0 2.3.9 2.5 2.2 2.6 15.9 11.8 29.7 24.6 38.4 1.4.9 1.5 2.9.3 4-10.6 9.6-24.1 16-39.1 17.6-1.5.2-2.8-1-2.8-2.5V88.4c0-1.4 1.1-2.6 2.5-2.6zm-73.5 0h32.7c1.6 0 2.8 1.5 2.5 3.1-3 13.1-11.1 24.1-22.2 30.9-1.1.7-2.6.4-3.4-.7-6.3-8.8-10.6-19.2-12.1-30.4-.3-1.5.9-2.9 2.5-2.9zM71.4 148c-14.8-1.6-28.3-7.9-38.8-17.4-1.2-1.1-1.1-3.1.3-4 13-8.7 22.3-22.6 24.9-38.6.2-1.2 1.3-2.2 2.5-2.2h11.4c1.4 0 2.5 1.1 2.5 2.5v57.1c0 1.6-1.3 2.8-2.8 2.6zm2.8-135.5v61.2c0 1.4-1.1 2.5-2.5 2.5H60.9c-1.3 0-2.4-1-2.5-2.3-1.4-17.9-11-33.5-25-43.1-1.4-.9-1.5-2.9-.3-4C43.6 17.7 56.8 11.6 71.4 10c1.5-.2 2.8 1 2.8 2.5zm-48 25.1c12.3 7.7 20.9 20.7 22.5 35.8.2 1.5-1 2.8-2.5 2.8H12.3c-1.5 0-2.6-1.3-2.5-2.8 1-13.1 5.7-25.2 13-35.3.8-.9 2.3-1.2 3.4-.5z" class="st5"/>
  </g>
  <g class="st3">
    <path d="M315.7 41.8v.1c0 2.8-2.3 5.1-5.1 5.1h-24.9c-2.1 0-4 .4-5.9 1.1-1.8.7-3.5 1.7-4.8 2.9-1.4 1.3-2.4 2.7-3.2 4.4-.8 1.7-1.2 3.5-1.2 5.3 0 1.9.4 3.6 1.2 5.3.8 1.6 1.8 3.1 3.2 4.3 1.4 1.3 3 2.2 4.8 2.9 1.8.7 3.8 1.1 5.9 1.1h8c3.6 0 7 .6 10.3 1.9 3.2 1.3 6 3 8.4 5.2 2.4 2.2 4.2 4.7 5.6 7.7 1.4 2.9 2.1 6 2.1 9.3 0 3.3-.7 6.4-2.1 9.3-1.4 2.9-3.2 5.5-5.6 7.6-2.4 2.2-5.2 3.9-8.4 5.1-3.2 1.3-6.6 1.9-10.3 1.9h-25.1c-2.8 0-5.1-2.3-5.1-5.1s2.3-5.1 5.1-5.1h25.1c2.1 0 4-.4 5.9-1.1 1.8-.7 3.4-1.7 4.8-2.9 1.3-1.2 2.4-2.7 3.2-4.4.8-1.7 1.2-3.5 1.2-5.3s-.4-3.7-1.2-5.3c-.8-1.7-1.9-3.1-3.2-4.4-1.3-1.3-2.9-2.2-4.8-2.9-1.8-.7-3.8-1.1-5.9-1.1h-8c-3.6 0-7-.6-10.2-1.9-3.2-1.2-6-2.9-8.4-5.1-2.4-2.1-4.3-4.7-5.7-7.6-1.4-2.9-2.1-6-2.1-9.3 0-3.4.7-6.5 2.1-9.4 1.4-2.9 3.3-5.4 5.7-7.6 2.4-2.2 5.2-3.9 8.4-5.2 3.2-1.2 6.6-1.9 10.2-1.9h24.9c2.8 0 5.1 2.3 5.1 5.1zm79.7 30.9c3.1 0 5.6 2.5 5.6 5.6v2.4c0 3.1-2.5 5.6-5.6 5.6-3.1 0-5.6-2.5-5.6-5.6v-2.4c0-3.1 2.5-5.6 5.6-5.6zm89.1-35.9c3.1 0 5.6 2.5 5.6 5.6V112h45.3c2.8 0 5.1 2.3 5.1 5.1s-2.3 5.1-5.1 5.1h-52.6c-2.2 0-4-1.8-4-4V42.4c.1-3.1 2.6-5.6 5.7-5.6zm139.8 35.9c3.1 0 5.6 2.5 5.6 5.6v2.4c0 3.1-2.5 5.6-5.6 5.6-3.1 0-5.6-2.5-5.6-5.6v-2.4c-.1-3.1 2.5-5.6 5.6-5.6zm87.4 19.1v25.3c0 3.1-2.5 5.7-5.7 5.7-3.1 0-5.7-2.5-5.7-5.7V67.5c0-4.3.9-8.3 2.7-12.1 1.8-3.8 4.3-7.1 7.3-9.9 3.1-2.8 6.7-5 10.9-6.7 4.2-1.6 8.7-2.5 13.5-2.5 4.7 0 9.2.8 13.3 2.5 4.2 1.6 7.8 3.9 10.9 6.7 3.1 2.8 5.5 6.1 7.3 9.9 1.8 3.8 2.7 7.8 2.7 12.1v49.7c0 3.1-2.5 5.6-5.6 5.6-3.1 0-5.6-2.5-5.6-5.6V91.8h-46zm46.1-24.4c0-2.9-.6-5.6-1.8-8.1-1.2-2.5-2.9-4.8-5-6.7-2.1-1.9-4.6-3.4-7.3-4.5-2.8-1.1-5.8-1.6-9-1.6s-6.2.5-9 1.6-5.2 2.6-7.3 4.5c-2.1 1.9-3.8 4.1-5 6.7-1.2 2.5-1.8 5.3-1.8 8.1v14.2h46.2V67.4zm104.7 5.3c3.1 0 5.6 2.5 5.6 5.6v2.4c0 3.1-2.5 5.6-5.6 5.6-3.1 0-5.6-2.5-5.6-5.6v-2.4c0-3.1 2.5-5.6 5.6-5.6zm66.1-12.5c0-3.3.7-6.4 2.1-9.3 1.4-2.9 3.2-5.4 5.6-7.6 2.4-2.2 5.2-3.9 8.4-5.2 3.2-1.2 6.6-1.9 10.2-1.9 4.2 0 8.1.8 11.7 2.5 2 .9 3.9 2.1 5.6 3.4 2.1 1.6 4.9 1.6 7 0 1.7-1.3 3.5-2.4 5.6-3.4 3.6-1.6 7.5-2.5 11.7-2.5 3.6 0 7 .6 10.2 1.9 3.2 1.3 6 3 8.4 5.2 2.4 2.2 4.3 4.7 5.7 7.6 1.4 2.9 2.1 6 2.1 9.3v57c0 3.1-2.5 5.6-5.6 5.6h-.1c-3.1 0-5.6-2.5-5.6-5.6v-57c0-1.9-.4-3.7-1.2-5.3-.8-1.7-1.8-3.1-3.2-4.3-1.4-1.2-3-2.2-4.8-2.9-1.8-.7-3.7-1.1-5.8-1.1s-4 .4-5.9 1.1c-1.8.7-3.5 1.7-4.8 2.9-1.4 1.2-2.5 2.7-3.2 4.3-.8 1.7-1.2 3.5-1.2 5.3v57c0 3.1-2.5 5.6-5.6 5.6h-.1c-3.1 0-5.6-2.5-5.6-5.6v-57c0-1.9-.4-3.7-1.2-5.3-.8-1.7-1.8-3.1-3.2-4.3-1.4-1.2-3-2.2-4.8-2.9s-3.8-1.1-5.9-1.1c-2.1 0-4 .4-5.9 1.1-1.8.7-3.5 1.7-4.8 2.9-1.4 1.2-2.4 2.7-3.2 4.3-.8 1.7-1.2 3.5-1.2 5.3v57c0 3.1-2.5 5.6-5.6 5.6-3.1 0-5.6-2.5-5.6-5.6v-57z" class="st7"/>
    <g class="st4">
      <path d="M149.5 66.2c-2 0-3.6-1.6-3.6-3.6 0-28.1-22-51-48.9-51-2 0-3.6-1.6-3.6-3.6S95 4.4 97 4.4c30.9 0 56.1 26.1 56.1 58.1 0 2.1-1.6 3.7-3.6 3.7z" class="st8"/>
    </g>
    <g class="st4">
      <path d="M127 66.2c-2 0-3.6-1.6-3.6-3.6 0-14.3-11.8-25.9-26.4-25.9-2 0-3.6-1.6-3.6-3.6s1.6-3.6 3.6-3.6c18.5 0 33.5 14.8 33.5 33.1.1 2-1.5 3.6-3.5 3.6z" class="st8"/>
    </g>
    <g class="st4">
      <path d="M105.2 65.6c-1.5-.4-2.5-2-2.4-3.6.2-2.5-2-5.1-5.3-5.1-1.4 0-2.7-1-3.1-2.4-.7-2.5 1.2-4.7 3.4-4.5 6.8.5 12 6.2 11.5 12.5-.1 2.1-2.1 3.7-4.1 3.1z" class="st8"/>
    </g>
    <path d="M83.8 9.7v66.6h.4V9.8c-.1 0-.3-.1-.4-.1z" class="st7"/>
    <path d="M79 158c43.6 0 79-35.4 79-79 0-1.4-1.2-2.5-2.5-2.5H83.9V9.7c.1 0-.1 0 0 0l.1-7.1C84 1.2 82.9.1 81.5 0h-2.4C35.4 0 0 35.4 0 79s35.4 79 79 79zm68.8-69.3c-1.6 11.1-5.8 21.4-12 30.1-.8 1.1-2.3 1.4-3.4.7-10.9-6.8-18.9-17.7-21.7-30.6-.3-1.6.9-3.1 2.5-3.1h32.1c1.5 0 2.7 1.4 2.5 2.9zm-61.5-2.9h12c1.3 0 2.3.9 2.5 2.2 2.6 15.9 11.8 29.7 24.6 38.4 1.4.9 1.5 2.9.3 4-10.6 9.6-24.1 16-39.1 17.6-1.5.2-2.8-1-2.8-2.5V88.4c0-1.4 1.1-2.6 2.5-2.6zm-73.5 0h32.7c1.6 0 2.8 1.5 2.5 3.1-3 13.1-11.1 24.1-22.2 30.9-1.1.7-2.6.4-3.4-.7-6.3-8.8-10.6-19.2-12.1-30.4-.3-1.5.9-2.9 2.5-2.9zM71.4 148c-14.8-1.6-28.3-7.9-38.8-17.4-1.2-1.1-1.1-3.1.3-4 13-8.7 22.3-22.6 24.9-38.6.2-1.2 1.3-2.2 2.5-2.2h11.4c1.4 0 2.5 1.1 2.5 2.5v57.1c0 1.6-1.3 2.8-2.8 2.6zm2.8-135.5v61.2c0 1.4-1.1 2.5-2.5 2.5H60.9c-1.3 0-2.4-1-2.5-2.3-1.4-17.9-11-33.5-25-43.1-1.4-.9-1.5-2.9-.3-4C43.6 17.7 56.8 11.6 71.4 10c1.5-.2 2.8 1 2.8 2.5zm-48 25.1c12.3 7.7 20.9 20.7 22.5 35.8.2 1.5-1 2.8-2.5 2.8H12.3c-1.5 0-2.6-1.3-2.5-2.8 1-13.1 5.7-25.2 13-35.3.8-.9 2.3-1.2 3.4-.5z" class="st7"/>
  </g>
  <g class="st3">
    <path d="M315.7 41.8v.1c0 2.8-2.3 5.1-5.1 5.1h-24.9c-2.1 0-4 .4-5.9 1.1-1.8.7-3.5 1.7-4.8 2.9-1.4 1.3-2.4 2.7-3.2 4.4-.8 1.7-1.2 3.5-1.2 5.3 0 1.9.4 3.6 1.2 5.3.8 1.6 1.8 3.1 3.2 4.3 1.4 1.3 3 2.2 4.8 2.9 1.8.7 3.8 1.1 5.9 1.1h8c3.6 0 7 .6 10.3 1.9 3.2 1.3 6 3 8.4 5.2 2.4 2.2 4.2 4.7 5.6 7.7 1.4 2.9 2.1 6 2.1 9.3 0 3.3-.7 6.4-2.1 9.3-1.4 2.9-3.2 5.5-5.6 7.6-2.4 2.2-5.2 3.9-8.4 5.1-3.2 1.3-6.6 1.9-10.3 1.9h-25.1c-2.8 0-5.1-2.3-5.1-5.1s2.3-5.1 5.1-5.1h25.1c2.1 0 4-.4 5.9-1.1 1.8-.7 3.4-1.7 4.8-2.9 1.3-1.2 2.4-2.7 3.2-4.4.8-1.7 1.2-3.5 1.2-5.3s-.4-3.7-1.2-5.3c-.8-1.7-1.9-3.1-3.2-4.4-1.3-1.3-2.9-2.2-4.8-2.9-1.8-.7-3.8-1.1-5.9-1.1h-8c-3.6 0-7-.6-10.2-1.9-3.2-1.2-6-2.9-8.4-5.1-2.4-2.1-4.3-4.7-5.7-7.6-1.4-2.9-2.1-6-2.1-9.3 0-3.4.7-6.5 2.1-9.4 1.4-2.9 3.3-5.4 5.7-7.6 2.4-2.2 5.2-3.9 8.4-5.2 3.2-1.2 6.6-1.9 10.2-1.9h24.9c2.8 0 5.1 2.3 5.1 5.1zm79.7 30.9c3.1 0 5.6 2.5 5.6 5.6v2.4c0 3.1-2.5 5.6-5.6 5.6-3.1 0-5.6-2.5-5.6-5.6v-2.4c0-3.1 2.5-5.6 5.6-5.6zm89.1-35.9c3.1 0 5.6 2.5 5.6 5.6V112h45.3c2.8 0 5.1 2.3 5.1 5.1s-2.3 5.1-5.1 5.1h-52.6c-2.2 0-4-1.8-4-4V42.4c.1-3.1 2.6-5.6 5.7-5.6zm139.8 35.9c3.1 0 5.6 2.5 5.6 5.6v2.4c0 3.1-2.5 5.6-5.6 5.6-3.1 0-5.6-2.5-5.6-5.6v-2.4c-.1-3.1 2.5-5.6 5.6-5.6zm87.4 19.1v25.3c0 3.1-2.5 5.7-5.7 5.7-3.1 0-5.7-2.5-5.7-5.7V67.5c0-4.3.9-8.3 2.7-12.1 1.8-3.8 4.3-7.1 7.3-9.9 3.1-2.8 6.7-5 10.9-6.7 4.2-1.6 8.7-2.5 13.5-2.5 4.7 0 9.2.8 13.3 2.5 4.2 1.6 7.8 3.9 10.9 6.7 3.1 2.8 5.5 6.1 7.3 9.9 1.8 3.8 2.7 7.8 2.7 12.1v49.7c0 3.1-2.5 5.6-5.6 5.6-3.1 0-5.6-2.5-5.6-5.6V91.8h-46zm46.1-24.4c0-2.9-.6-5.6-1.8-8.1-1.2-2.5-2.9-4.8-5-6.7-2.1-1.9-4.6-3.4-7.3-4.5-2.8-1.1-5.8-1.6-9-1.6s-6.2.5-9 1.6-5.2 2.6-7.3 4.5c-2.1 1.9-3.8 4.1-5 6.7-1.2 2.5-1.8 5.3-1.8 8.1v14.2h46.2V67.4zm104.7 5.3c3.1 0 5.6 2.5 5.6 5.6v2.4c0 3.1-2.5 5.6-5.6 5.6-3.1 0-5.6-2.5-5.6-5.6v-2.4c0-3.1 2.5-5.6 5.6-5.6zm66.1-12.5c0-3.3.7-6.4 2.1-9.3 1.4-2.9 3.2-5.4 5.6-7.6 2.4-2.2 5.2-3.9 8.4-5.2 3.2-1.2 6.6-1.9 10.2-1.9 4.2 0 8.1.8 11.7 2.5 2 .9 3.9 2.1 5.6 3.4 2.1 1.6 4.9 1.6 7 0 1.7-1.3 3.5-2.4 5.6-3.4 3.6-1.6 7.5-2.5 11.7-2.5 3.6 0 7 .6 10.2 1.9 3.2 1.3 6 3 8.4 5.2 2.4 2.2 4.3 4.7 5.7 7.6 1.4 2.9 2.1 6 2.1 9.3v57c0 3.1-2.5 5.6-5.6 5.6h-.1c-3.1 0-5.6-2.5-5.6-5.6v-57c0-1.9-.4-3.7-1.2-5.3-.8-1.7-1.8-3.1-3.2-4.3-1.4-1.2-3-2.2-4.8-2.9-1.8-.7-3.7-1.1-5.8-1.1s-4 .4-5.9 1.1c-1.8.7-3.5 1.7-4.8 2.9-1.4 1.2-2.5 2.7-3.2 4.3-.8 1.7-1.2 3.5-1.2 5.3v57c0 3.1-2.5 5.6-5.6 5.6h-.1c-3.1 0-5.6-2.5-5.6-5.6v-57c0-1.9-.4-3.7-1.2-5.3-.8-1.7-1.8-3.1-3.2-4.3-1.4-1.2-3-2.2-4.8-2.9s-3.8-1.1-5.9-1.1c-2.1 0-4 .4-5.9 1.1-1.8.7-3.5 1.7-4.8 2.9-1.4 1.2-2.4 2.7-3.2 4.3-.8 1.7-1.2 3.5-1.2 5.3v57c0 3.1-2.5 5.6-5.6 5.6-3.1 0-5.6-2.5-5.6-5.6v-57z" class="st7"/>
    <g class="st4">
      <path d="M149.5 66.2c-2 0-3.6-1.6-3.6-3.6 0-28.1-22-51-48.9-51-2 0-3.6-1.6-3.6-3.6S95 4.4 97 4.4c30.9 0 56.1 26.1 56.1 58.1 0 2.1-1.6 3.7-3.6 3.7z" class="st8"/>
    </g>
    <g class="st4">
      <path d="M127 66.2c-2 0-3.6-1.6-3.6-3.6 0-14.3-11.8-25.9-26.4-25.9-2 0-3.6-1.6-3.6-3.6s1.6-3.6 3.6-3.6c18.5 0 33.5 14.8 33.5 33.1.1 2-1.5 3.6-3.5 3.6z" class="st8"/>
    </g>
    <g class="st4">
      <path d="M105.2 65.6c-1.5-.4-2.5-2-2.4-3.6.2-2.5-2-5.1-5.3-5.1-1.4 0-2.7-1-3.1-2.4-.7-2.5 1.2-4.7 3.4-4.5 6.8.5 12 6.2 11.5 12.5-.1 2.1-2.1 3.7-4.1 3.1z" class="st8"/>
    </g>
    <path fill="none" d="M100.5 85.8H83.8v62.4c17.2-1.2 32.8-8.6 44.3-20.1-14.9-8.9-25.3-24.3-27.6-42.3zm-52 0H9.9C11.2 99 16.1 111 23.7 121c13-7.1 22.5-20 24.8-35.2zM83.8 9.7v66.6h.4V9.8c-.1 0-.3-.1-.4-.1zm50.6 111c7.5-9.9 12.4-21.9 13.7-34.9h-38c2.3 15.1 11.6 27.8 24.3 34.9zM58.5 76.3h15.8V9.7c-16.9 1.2-32.1 8.4-43.6 19.5 16 9.8 27 27.1 27.8 47.1zm-28.3 52c11.5 11.4 26.9 18.8 44.1 19.9V85.8H58.1c-2.3 18.1-12.9 33.6-27.9 42.5zm18.7-52c-.8-17.1-10.6-31.9-24.8-39.8-8.6 11.1-14 24.9-14.6 39.8h39.4z"/>
    <path fill="#ff8600" d="M79 158c43.6 0 79-35.4 79-79 0-1.4-1.2-2.5-2.5-2.5H83.9V9.7c.1 0-.1 0 0 0l.1-7.1C84 1.2 82.9.1 81.5 0h-2.4C35.4 0 0 35.4 0 79s35.4 79 79 79zm68.8-69.3c-1.6 11.1-5.8 21.4-12 30.1-.8 1.1-2.3 1.4-3.4.7-10.9-6.8-18.9-17.7-21.7-30.6-.3-1.6.9-3.1 2.5-3.1h32.1c1.5 0 2.7 1.4 2.5 2.9zm-61.5-2.9h12c1.3 0 2.3.9 2.5 2.2 2.6 15.9 11.8 29.7 24.6 38.4 1.4.9 1.5 2.9.3 4-10.6 9.6-24.1 16-39.1 17.6-1.5.2-2.8-1-2.8-2.5V88.4c0-1.4 1.1-2.6 2.5-2.6zm-73.5 0h32.7c1.6 0 2.8 1.5 2.5 3.1-3 13.1-11.1 24.1-22.2 30.9-1.1.7-2.6.4-3.4-.7-6.3-8.8-10.6-19.2-12.1-30.4-.3-1.5.9-2.9 2.5-2.9zM71.4 148c-14.8-1.6-28.3-7.9-38.8-17.4-1.2-1.1-1.1-3.1.3-4 13-8.7 22.3-22.6 24.9-38.6.2-1.2 1.3-2.2 2.5-2.2h11.4c1.4 0 2.5 1.1 2.5 2.5v57.1c0 1.6-1.3 2.8-2.8 2.6zm2.8-135.5v61.2c0 1.4-1.1 2.5-2.5 2.5H60.9c-1.3 0-2.4-1-2.5-2.3-1.4-17.9-11-33.5-25-43.1-1.4-.9-1.5-2.9-.3-4C43.6 17.7 56.8 11.6 71.4 10c1.5-.2 2.8 1 2.8 2.5zm-48 25.1c12.3 7.7 20.9 20.7 22.5 35.8.2 1.5-1 2.8-2.5 2.8H12.3c-1.5 0-2.6-1.3-2.5-2.8 1-13.1 5.7-25.2 13-35.3.8-.9 2.3-1.2 3.4-.5z"/>
  </g>
</svg>
