<?xml version="1.0" encoding="utf-8"?><svg xmlns="http://www.w3.org/2000/svg" xmlns:xlink="http://www.w3.org/1999/xlink"><symbol viewBox="0 0 48 48" id="fb" xmlns="http://www.w3.org/2000/svg"><path d="M47.761 24c0 13.121-10.638 23.76-23.758 23.76C10.877 47.76.239 37.121.239 24 .239 10.876 10.877.24 24.003.24 37.123.24 47.761 10.876 47.761 24M20.033 38.85H26.2V24.01h4.163l.539-5.242H26.2v-3.083c0-1.156.769-1.427 1.308-1.427h3.318v-5.09l-4.568-.018c-5.072 0-6.225 3.796-6.225 6.224v3.394H17.1v5.242h2.933v14.84z"/></symbol><symbol viewBox="0 0 161 99" id="i-speed" xmlns="http://www.w3.org/2000/svg"><path fill-rule="evenodd" clip-rule="evenodd" d="M160.574 49.46c0 27.296-22.055 49.459-49.219 49.459s-49.22-22.163-49.22-49.46C62.136 22.163 84.192 0 111.418 0h1.496c.872.063 1.557.751 1.557 1.628l-.062 4.445v41.821h44.609c.81 0 1.557.689 1.557 1.565zm-13.831 24.917c3.863-5.447 6.479-11.895 7.476-18.845.125-.939-.623-1.815-1.557-1.815h-19.999c-.997 0-1.745.939-1.558 1.94 1.744 8.077 6.729 14.9 13.52 19.158.685.438 1.62.25 2.118-.438zm-23.364-20.66h-7.476c-.872 0-1.557.75-1.557 1.627v35.749c0 .939.809 1.69 1.744 1.565 9.345-1.002 17.756-5.009 24.36-11.019.748-.688.686-1.94-.187-2.504-7.974-5.447-13.706-14.087-15.326-24.041-.125-.814-.748-1.377-1.558-1.377zm-32.895 0H70.11c-.997 0-1.745.876-1.558 1.815.934 7.012 3.614 13.523 7.539 19.033.498.688 1.433.876 2.118.438A30.657 30.657 0 0092.04 55.657c.187-1.001-.56-1.94-1.557-1.94zm-8.037 28.047a42.82 42.82 0 0024.173 10.894c.935.125 1.744-.626 1.744-1.628V55.282c0-.877-.685-1.565-1.557-1.565h-7.103c-.747 0-1.433.626-1.557 1.377-1.62 10.017-7.414 18.72-15.514 24.166-.872.564-.934 1.816-.186 2.504zm25.917-35.623V7.826c0-.94-.809-1.69-1.744-1.565-9.096 1.001-17.32 4.82-23.862 10.518-.748.688-.685 1.94.187 2.504 8.722 6.01 14.703 15.777 15.576 26.983.062.814.747 1.44 1.557 1.44h6.729c.872 0 1.557-.688 1.557-1.565zm-15.887-.188C91.48 36.5 86.122 28.361 78.46 23.54c-.685-.438-1.62-.25-2.118.313-4.548 6.323-7.477 13.899-8.1 22.1-.062.94.623 1.753 1.558 1.753h21.12c.935 0 1.683-.814 1.558-1.753zm60.596-6.761a2.24 2.24 0 002.246 2.254c1.247 0 2.245-1.002 2.245-2.317 0-20.034-15.717-36.374-34.99-36.374a2.24 2.24 0 00-2.245 2.254 2.24 2.24 0 002.245 2.253c16.778 0 30.499 14.337 30.499 31.93zm-14.033 0a2.24 2.24 0 002.245 2.254c1.248 0 2.246-1.002 2.183-2.254 0-11.457-9.355-20.723-20.893-20.723a2.24 2.24 0 00-2.246 2.254 2.24 2.24 0 002.246 2.254c9.106 0 16.465 7.262 16.465 16.215zm-11.352 1.878c-.935-.25-1.559-1.252-1.496-2.254.124-1.565-1.248-3.193-3.306-3.193-.873 0-1.684-.626-1.934-1.502-.436-1.566.749-2.943 2.121-2.818 4.241.313 7.484 3.882 7.173 7.826-.063 1.315-1.31 2.317-2.558 1.94z"/><rect x="18" y="48.017" width="32" height="6" rx="3"/><rect y="48.017" width="12" height="6" rx="3"/><rect x="35" y="18.017" width="31" height="6" rx="3"/><rect x="35" y="78.017" width="31" height="6" rx="3"/></symbol><symbol viewBox="-615 1477 48 48" id="in" xmlns="http://www.w3.org/2000/svg"><path d="M-566.999 1501c0 13.256-10.746 24-24 24-13.256 0-24.002-10.744-24.002-24 0-13.254 10.746-24 24.002-24 13.254 0 24 10.746 24 24zm-38.507 13.975h6.22v-20.004h-6.22v20.004zm3.11-22.739a3.606 3.606 0 000-7.211 3.603 3.603 0 00-3.604 3.605 3.604 3.604 0 003.604 3.606zm26.396 11.766c0-5.387-1.163-9.529-7.454-9.529-3.023 0-5.054 1.658-5.884 3.231h-.085v-2.733h-5.964v20.004h6.216v-9.896c0-2.609.493-5.137 3.729-5.137 3.186 0 3.232 2.984 3.232 5.305v9.729h6.21v-10.974z"/></symbol></svg>